<svg id="e7zZx0qhT3n1" xmlns="http://www.w3.org/2000/svg" xmlns:xlink="http://www.w3.org/1999/xlink" viewBox="0 0 64 480" shape-rendering="geometricPrecision" text-rendering="geometricPrecision"><line x1="-32" y1="0" x2="32" y2="0" transform="translate(32 5)" fill="none" stroke="#fff" stroke-width="10"/><line x1="-32" y1="0" x2="32" y2="0" transform="translate(32 475)" fill="none" stroke="#fff" stroke-width="10"/><line x1="0" y1="-21.13253" x2="0" y2="24.778201" transform="matrix(-1 0 0 0.871256 32 23.411844)" fill="none" stroke="#fff" stroke-width="8"/><line x1="0" y1="-21.13253" x2="0" y2="24.778201" transform="matrix(-1 0 0 0.871256 32 225.852667)" fill="none" stroke="#fff" stroke-width="8"/><line x1="0" y1="-21.13253" x2="0" y2="24.778201" transform="matrix(-1 0 0 0.871256 32 326.152412)" fill="none" stroke="#fff" stroke-width="8"/><line x1="0" y1="-21.13253" x2="0" y2="24.778201" transform="matrix(-1 0 0 0.454236 32 466.698416)" fill="none" stroke="#fff" stroke-width="8"/><line x1="0" y1="-21.13253" x2="0" y2="24.778201" transform="matrix(-1 0 0 0.871256 32 425.261971)" fill="none" stroke="#fff" stroke-width="8"/><line x1="0" y1="-21.13253" x2="0" y2="24.778201" transform="matrix(-1 0 0 0.871256 32 376.015713)" fill="none" stroke="#fff" stroke-width="8"/><line x1="0" y1="-21.13253" x2="0" y2="24.778201" transform="matrix(-1 0 0 0.871256 32 275.715968)" fill="none" stroke="#fff" stroke-width="8"/><line x1="0" y1="-21.13253" x2="0" y2="24.778201" transform="matrix(-1 0 0 0.871256 32 123.711589)" fill="none" stroke="#fff" stroke-width="8"/><line x1="0" y1="-21.13253" x2="0" y2="24.778201" transform="matrix(-1 0 0 0.871256 32 173.57489)" fill="none" stroke="#fff" stroke-width="8"/><line x1="0" y1="-21.13253" x2="0" y2="24.778201" transform="matrix(-1 0 0 0.871256 32 73.275145)" fill="none" stroke="#fff" stroke-width="8"/></svg>