<?xml version="1.0" standalone="no"?>
<!DOCTYPE svg PUBLIC "-//W3C//DTD SVG 20010904//EN"
 "http://www.w3.org/TR/2001/REC-SVG-20010904/DTD/svg10.dtd">
<svg version="1.0" xmlns="http://www.w3.org/2000/svg"
 width="113.000000pt" height="108.000000pt" viewBox="0 0 113.000000 108.000000"
 preserveAspectRatio="xMidYMid meet">

<g transform="translate(0.000000,108.000000) scale(0.100000,-0.100000)"
fill="#ffffff" stroke="none">
<path d="M771 1054 c-24 -31 -25 -37 -10 -67 16 -29 28 -37 60 -37 54 0 79 70
39 110 -28 28 -64 25 -89 -6z"/>
<path d="M360 955 c-26 -32 13 -81 48 -59 34 22 22 74 -18 74 -10 0 -23 -7
-30 -15z"/>
<path d="M235 940 c-36 -40 7 -96 55 -70 27 14 27 65 1 80 -27 14 -35 13 -56
-10z"/>
<path d="M470 946 c-27 -33 18 -72 48 -42 13 13 14 20 6 34 -15 23 -38 26 -54
8z"/>
<path d="M557 924 c-12 -13 -8 -42 8 -48 25 -9 46 5 43 28 -3 21 -37 34 -51
20z"/>
<path d="M800 880 c-25 -25 -26 -52 -2 -73 37 -34 92 -11 92 38 0 24 -33 55
-57 55 -7 0 -22 -9 -33 -20z"/>
<path d="M624 875 c-4 -9 -2 -21 4 -27 15 -15 44 -1 40 19 -4 23 -36 29 -44 8z"/>
<path d="M952 864 c-24 -17 -30 -62 -10 -82 21 -21 66 -14 83 12 24 36 -2 86
-44 86 -3 0 -17 -7 -29 -16z"/>
<path d="M382 838 c-25 -25 -6 -68 30 -68 26 0 45 44 28 65 -15 18 -41 20 -58
3z"/>
<path d="M260 822 c-45 -36 -1 -99 50 -72 27 14 27 65 1 80 -25 13 -25 13 -51
-8z"/>
<path d="M490 826 c-27 -33 18 -72 48 -42 13 13 14 20 6 34 -15 23 -38 26 -54
8z"/>
<path d="M675 830 c-4 -7 -3 -16 3 -22 14 -14 45 -2 40 15 -6 16 -34 21 -43 7z"/>
<path d="M580 795 c-16 -19 -6 -45 19 -45 23 0 35 28 20 46 -15 18 -24 18 -39
-1z"/>
<path d="M122 774 c-24 -17 -30 -62 -10 -82 20 -20 65 -14 82 10 21 30 20 44
-4 68 -24 24 -38 25 -68 4z"/>
<path d="M650 755 c-10 -11 -10 -19 -2 -27 15 -15 44 -2 40 19 -4 23 -22 27
-38 8z"/>
<path d="M778 715 c-9 -21 -8 -28 7 -45 24 -27 51 -25 70 4 23 34 5 66 -36 66
-22 0 -32 -6 -41 -25z"/>
<path d="M932 708 c-17 -17 -15 -53 3 -68 22 -19 64 -4 71 25 4 15 1 32 -6 40
-15 18 -51 20 -68 3z"/>
<path d="M432 698 c-18 -18 -15 -35 10 -52 30 -21 60 -4 56 32 -2 20 -9 28
-28 30 -14 2 -31 -3 -38 -10z"/>
<path d="M305 676 c-23 -34 -5 -66 36 -66 41 0 61 40 34 70 -24 27 -51 25 -70
-4z"/>
<path d="M542 688 c-16 -16 -15 -23 4 -42 21 -22 56 -3 52 27 -3 25 -37 34
-56 15z"/>
<path d="M1038 654 c-9 -18 -9 -30 -1 -42 14 -24 63 -22 79 3 12 18 11 24 -2
43 -21 31 -61 29 -76 -4z"/>
<path d="M628 658 c-9 -23 3 -38 28 -38 19 0 24 5 24 25 0 20 -5 25 -24 25
-13 0 -26 -6 -28 -12z"/>
<path d="M164 625 c-21 -33 -6 -72 31 -81 50 -13 86 53 49 90 -24 24 -61 20
-80 -9z"/>
<path d="M753 613 c-18 -7 -16 -48 2 -63 17 -14 51 -5 59 16 14 35 -23 63 -61
47z"/>
<path d="M890 585 c-26 -32 13 -81 48 -59 22 14 27 41 12 59 -16 19 -44 19
-60 0z"/>
<path d="M450 555 c-16 -19 -6 -45 19 -45 23 0 35 28 20 46 -15 18 -24 18 -39
-1z"/>
<path d="M21 534 c-12 -15 -21 -32 -21 -39 0 -23 41 -65 64 -65 59 0 88 68 46
110 -28 28 -64 25 -89 -6z"/>
<path d="M1006 538 c-20 -28 -4 -58 29 -58 33 0 49 30 29 58 -8 12 -21 22 -29
22 -8 0 -21 -10 -29 -22z"/>
<path d="M696 515 c-20 -21 -5 -55 25 -55 24 0 36 27 22 48 -14 23 -29 25 -47
7z"/>
<path d="M355 510 c-9 -15 14 -40 31 -33 22 8 18 43 -5 43 -11 0 -23 -5 -26
-10z"/>
<path d="M281 496 c-9 -10 -8 -16 3 -25 10 -9 16 -8 25 3 9 10 8 16 -3 25 -10
9 -16 8 -25 -3z"/>
<path d="M842 498 c-30 -30 1 -73 36 -51 23 14 25 29 7 47 -20 19 -27 20 -43
4z"/>
<path d="M464 466 c-10 -26 4 -48 28 -44 33 4 33 52 0 56 -13 2 -25 -3 -28
-12z"/>
<path d="M634 446 c-9 -24 4 -48 23 -44 12 2 18 12 18 28 0 29 -32 41 -41 16z"/>
<path d="M951 447 c-24 -29 17 -70 46 -46 20 17 12 53 -13 57 -11 2 -26 -3
-33 -11z"/>
<path d="M267 443 c-12 -12 -7 -41 7 -46 22 -9 41 19 26 38 -14 16 -23 19 -33
8z"/>
<path d="M353 434 c-3 -8 2 -23 11 -32 15 -15 17 -15 32 0 21 21 11 48 -16 48
-11 0 -23 -7 -27 -16z"/>
<path d="M774 425 c-8 -21 2 -45 19 -45 8 0 20 7 27 15 10 12 10 18 0 30 -7 8
-19 15 -27 15 -7 0 -16 -7 -19 -15z"/>
<path d="M516 387 c-26 -19 -18 -61 12 -65 44 -7 67 32 36 62 -19 19 -25 20
-48 3z"/>
<path d="M723 393 c-21 -8 -15 -43 6 -43 11 0 23 5 27 11 8 14 -17 38 -33 32z"/>
<path d="M891 386 c-17 -20 -2 -48 23 -44 24 3 34 37 14 49 -18 12 -24 11 -37
-5z"/>
<path d="M256 353 c-8 -20 19 -44 40 -36 8 3 14 16 14 29 0 19 -5 24 -24 24
-13 0 -27 -8 -30 -17z"/>
<path d="M377 364 c-13 -13 -7 -52 8 -58 27 -10 46 5 43 33 -3 26 -35 41 -51
25z"/>
<path d="M824 339 c-8 -14 21 -43 35 -35 19 12 13 46 -8 46 -11 0 -23 -5 -27
-11z"/>
<path d="M771 316 c-8 -10 -8 -16 2 -24 17 -14 42 2 34 22 -8 20 -21 20 -36 2z"/>
<path d="M586 291 c-33 -37 5 -88 52 -70 29 11 31 63 3 79 -27 14 -35 13 -55
-9z"/>
<path d="M281 276 c-26 -31 14 -71 45 -45 8 7 14 22 12 33 -4 26 -40 33 -57
12z"/>
<path d="M422 268 c-28 -28 -1 -75 37 -63 11 3 23 15 26 26 12 38 -35 65 -63
37z"/>
<path d="M697 212 c-33 -36 -8 -92 40 -92 25 0 53 30 53 57 0 46 -62 69 -93
35z"/>
<path d="M320 179 c-10 -18 -9 -25 8 -41 27 -28 65 -9 60 30 -4 36 -51 44 -68
11z"/>
<path d="M490 175 c-31 -38 27 -96 65 -65 20 17 19 66 -1 74 -26 10 -51 7 -64
-9z"/>
<path d="M852 154 c-48 -33 -17 -114 44 -114 23 0 64 42 64 65 0 23 -41 65
-64 65 -12 0 -32 -7 -44 -16z"/>
<path d="M408 109 c-25 -14 -23 -65 2 -79 51 -27 95 36 50 72 -25 21 -29 21
-52 7z"/>
<path d="M600 91 c-16 -31 -12 -59 12 -75 30 -21 44 -20 68 4 24 24 26 53 4
74 -22 23 -71 20 -84 -3z"/>
</g>
</svg>
