<?xml version="1.0" standalone="no"?>
<!DOCTYPE svg PUBLIC "-//W3C//DTD SVG 20010904//EN"
 "http://www.w3.org/TR/2001/REC-SVG-20010904/DTD/svg10.dtd">
<svg version="1.0" xmlns="http://www.w3.org/2000/svg"
 width="1000.000000pt" height="611.000000pt" viewBox="0 0 1000.000000 611.000000"
 preserveAspectRatio="xMidYMid meet">

<g transform="translate(0.000000,611.000000) scale(0.100000,-0.100000)"
stroke="none">
<path d="M4830 5785 c-133 -28 -253 -82 -355 -158 -64 -47 -993 -931 -2800
-2662 -1149 -1101 -1188 -1140 -1260 -1285 -239 -475 -55 -1050 410 -1280 144
-72 202 -85 370 -84 125 0 149 3 225 28 109 36 241 104 325 168 56 42 773 725
2959 2821 160 152 293 277 297 277 3 0 186 -172 405 -382 2099 -2012 2798
-2678 2849 -2716 321 -237 670 -267 980 -84 101 59 266 220 319 311 87 150
125 282 133 461 4 104 1 143 -17 230 -35 171 -102 312 -202 426 -99 114 -1063
1040 -3332 3203 -302 288 -572 542 -600 564 -62 49 -228 129 -316 152 -89 23
-304 29 -390 10z"/>
</g>
</svg>
