<svg id="emf2FuwNVkP1" xmlns="http://www.w3.org/2000/svg" xmlns:xlink="http://www.w3.org/1999/xlink" viewBox="0 0 710 638" shape-rendering="geometricPrecision" text-rendering="geometricPrecision"><g transform="matrix(.160085 0 0-.160085-225.10855 834.44202)"><path d="M1700,5172c-23-23-46-82-114-292-47-145-86-276-86-291s45-234,100-486c139-633,179-802,196-834c7-15,14-35,14-44s-63-212-140-451l-140-435l95-327c155-540,150-524,185-554c19-18,42-28,60-28c17,0,217,52,445,115c472,132,430,129,540,39c61-51,402-292,442-313c31-16,646-16,676,1c42,22,386,267,453,322c58,48,74,56,109,56c23,0,219-49,437-110c218-60,410-110,427-110c19,0,42,10,61,28c28,24,41,65,150,441c66,228,120,425,120,438s-61,213-135,444-135,431-135,445s7,38,15,52c16,29,285,1263,285,1308c0,15-39,147-86,293-95,296-109,321-181,321-23,0-264-85-663-235l-627-235h-573-573l-627,235c-409,154-640,235-664,235-28,0-45-7-66-28Zm880-616c382-263,703-487,712-498c13-15,15-25,8-39-6-10-129-112-275-226l-264-207-402-109c-330-89-404-106-414-95-14,15-295,1101-295,1139c0,27,165,486,183,507c6,8,20,12,31,10c12-3,334-220,716-482Zm2848,471c6-7,50-123,99-259l89-247-146-566c-98-382-150-569-161-575-10-6-150,28-413,99l-398,107-258,202c-142,111-263,209-270,217-6,7-10,24-8,35c2,16,192,152,713,511c391,269,717,489,726,489s21-6,27-13ZM3217,2760c94-189,79-202-156-131-90,28-171,57-179,65-9,9-12,23-8,39c4,19,30,35,128,80c68,31,132,55,143,54c15-1,34-30,72-107Zm1082,27c65-32,87-47,89-64c5-32-22-44-206-98-157-46-163-47-182-30-11,10-20,23-20,30c0,22,108,233,122,237c16,6,84-20,197-75Zm-412-814c48-30,47-29,64-181c11-97,11-115-2-123-18-11-620-12-638,0-11,7-13,29-7,112c10,147,13,157,59,190l40,29h221h222l41-27Z" fill="#fff"/></g></svg>