<svg id="eMQrlYI8oRW1" xmlns="http://www.w3.org/2000/svg" xmlns:xlink="http://www.w3.org/1999/xlink" viewBox="0 0 1000 1040" shape-rendering="geometricPrecision" text-rendering="geometricPrecision" fill="#FFFFFF"><g transform="matrix(.055187 0 0-.055187 215.643155 788.110835)"><path d="M4195,10089c-237-35-341-89-736-385-338-252-477-320-765-377l-168-33l60-45c212-162,427-265,684-328c174-42,271-54,445-53c304,0,698,107,793,216c43,50,42,71-19,316-46,183-52,217-53,320-1,101,2,125,27,201c16,48,27,101,25,120-2,29-8,36-38,46-40,14-167,15-255,2Z"/><path d="M5005,9541c-3-5,19-126,49-268c227-1077,358-1949,398-2648c17-304,17-2022,0-2310-31-508-147-1259-277-1785-24-96-43-176-42-177c1,0,58,44,127,99c1001,806,1953,1232,3015,1349c55,6,258,14,450,18l350,6l14,210c42,619-73,1467-290,2134-159,486-409,989-682,1369-279,389-630,750-1006,1036-480,365-1007,636-1661,858-305,103-429,133-445,109Z"/><path d="M4706,8243c-4-10-57-164-118-343-302-891-557-1509-928-2250-519-1038-1100-1941-1755-2730-158-191-218-271-207-282c22-22,699-142,977-173c430-49,1100-31,1524,41c286,48,466,108,507,170c57,87,189,944,259,1679c54,575,39,1880-31,2620-32,340-184,1248-213,1278-5,5-12,0-15-10Z"/><path d="M9003,3136c-59-34-168-97-242-140-986-571-2362-941-4166-1120-663-66-2511-92-3285-46-102,6-264,12-360,13l-175,2l2-67c1-77,50-282,98-413c97-265,182-388,406-593c71-64,127-118,125-119-4-4-397-43-428-43-16,0-18-14-18-151v-152l163,6c272,10,501,73,774,213c90,46,171,89,181,95c15,9,34,2,111-45c200-122,358-188,544-228c149-32,446-32,597,1c170,36,283,79,490,183l194,98l106-64c196-119,328-174,510-213c121-26,515-26,642,0c218,44,380,108,537,210c56,37,107,67,113,67s50-24,97-54c349-219,746-299,1143-230c200,34,364,97,554,213l128,78l101-62c128-80,177-104,297-149c182-68,339-98,636-121l83-6-3,153-3,153-150,16c-226,25-445,70-445,91c0,5,37,55,83,111c158,195,242,327,368,578c245,488,420,1101,419,1464-1,148-46,301-95,323-20,9-37,3-132-52Z"/></g><path d="M7.79033,520c0-267.2649,216.66101-483.9259,483.9259-483.9259s483.9259,216.66101,483.9259,483.9259-216.66101,483.9259-483.9259,483.9259-483.9259-216.66101-483.9259-483.9259Zm483.9259,368.5644c203.5525,0,368.5644-165.0119,368.5644-368.5644s-165.0119-368.5644-368.5644-368.5644-368.5644,165.0119-368.5644,368.5644s165.0119,368.5644,368.5644,368.5644Z" stroke-width="0"/></svg>