<svg id="e7beJ6CLcDI1" xmlns="http://www.w3.org/2000/svg" xmlns:xlink="http://www.w3.org/1999/xlink" viewBox="0 0 320 320" shape-rendering="geometricPrecision" text-rendering="geometricPrecision"><g transform="matrix(1.240971 0 0 1-62.188035-61.180931)"><path d="M194.816,67.29c-2.15.213-6.58.875-7.837,1.17-.197.046-.753.182-1.237.301-.483.12-1.098.26-1.367.31-.269.051-1.235.31-2.148.576-.914.265-1.857.525-2.096.577-.779.169-5.028,1.691-5.219,1.868-.102.096-.299.174-.439.174-.41,0-6.99,3.131-9.028,4.297-.282.161-1.126.639-1.875,1.062-.75.423-1.433.884-1.519,1.025s-.243.256-.349.256c-.233,0-3.057,1.907-3.224,2.178-.066.107-.273.253-.461.326-.384.149-1.451.958-2.636,2-.435.382-1.23,1.041-1.766,1.465-1.113.878-7.02,6.727-6.794,6.727.081,0-.071.206-.339.459-.267.253-.721.758-1.008,1.123s-.776.947-1.086,1.292c-.698.778-3.958,5.298-3.958,5.488c0,.076-.198.361-.44.634-.241.272-.557.701-.702.952-2.088,3.633-2.953,5.19-2.956,5.326-.002.076-.25.559-.55,1.074s-.71,1.376-.911,1.913-.652,1.601-1.003,2.364c-4.414,9.6-6.452,23.651-5.252,36.211.355,3.715.358,3.504-.045,2.924-.596-.86-.724-1.011-1.72-2.024-.94-.957-2.187-2.074-3.575-3.204-.357-.291-1.016-.842-1.464-1.225-.746-.637-1.265-.969-3.257-2.083-.94-.525-3.94-1.615-4.446-1.615-.228,0-.467-.085-.531-.189-.384-.621-10.376.198-14.142,1.16-4.749,1.212-11.18,4.348-13.957,6.804-8.077,7.146-10.874,14.915-8.306,23.071.709,2.253,1.062,3.24,1.786,4.994c1.078,2.609,3.831,8.105,4.061,8.105.101,0,.183.113.183.252c0,.138.26.556.578.928.318.371.582.758.586.858s.476.803,1.047,1.562c.572.759,1.598,2.128,2.281,3.041.682.913,1.296,1.704,1.364,1.758.068.053.251.283.405.51.3.44,8.231,8.698,9.337,9.722.795.737,3.745,3.681,5.527,5.517c1.161,1.197,3.135,3.046,4.442,4.162.258.221.398.401.312.401-.087,0-.023.154.142.342c1.156,1.315,1.907,4.404,2.609,10.731.183,1.65.205,5.055.045,6.833-.344,3.815-.787,8.188-1.234,12.172-1.357,12.112-1.731,19.719-1.179,23.971.164,1.266.491,4.022.574,4.838.63,6.213,4.761,13.897,8.879,16.515l.461.293-.924.971c-2.046,2.151-3.557,4.391-5.661,8.393-2.952,5.613-3.818,7.343-4.398,8.789-.345.859-.705,1.738-.801,1.953-.241.539-1.94,5.205-2.027,5.566-.635,2.65-.692,3.042-.557,3.878.08.499.152.951.16,1.005.141.942,4.196,4.688,5.074,4.688.074,0,.501.252.95.561.877.603,5.584,2.942,6.871,3.415.43.157,1.617.605,2.637.995c1.021.39,1.994.741,2.162.78.169.04.784.218,1.368.395c2.711.827,4.248,1.254,4.966,1.38.43.075,1.265.262,1.856.414.591.153,1.425.322,1.855.376.43.055,1.177.18,1.66.28.96.197,1.147.226,4.59.717c4.725.673,12.78.469,16.406-.417.25-.06,1.149-.411,2.149-.838c1.057-.451,5.065-3.412,6.152-4.546.484-.504,1.099-.983,1.367-1.065.577-.175,2.461-2.042,3.225-3.197.296-.447.614-.813.708-.813.093,0,.169-.132.169-.293s.069-.293.153-.293.298-.241.475-.537c.177-.295.463-.713.634-.928.446-.558,1.713-2.306,2.058-2.84.411-.634,4.666-4.874,4.892-4.874.103,0,.186-.072.186-.158c0-.182,2.374-1.311,3.171-1.509.615-.152,2.004.563,2.493,1.283.162.237.382.531.49.652c1.13,1.263,3.637,5.815,3.921,7.118.063.288.276.963.474,1.5.845,2.29,2.136,7.176,2.845,10.77.046.231.341,1.505.656,2.832c1.06,4.465,2.434,12.21,2.653,14.958.23,2.879.527,5.822.599,5.939.042.068.13.464.196.879.065.415.374,1.543.686,2.505.311.962.566,1.831.566,1.931c0,.291,2.185,4.684,2.473,4.972.144.144.262.327.262.407c0,.646,4.783,4.632,6.152,5.127.376.136.684.332.684.436c0,.103.05.138.111.077s.629.1,1.262.357s1.835.649,2.672.872c.837.222,1.653.455,1.814.519.338.132.162.096,3.658.753c2.887.542,3.012.56,4.936.745c6.836.655,15.931.999,19.043.721c2.416-.216,7.974-1.213,9.082-1.628.161-.06,1.128-.385,2.148-.722c1.999-.659,3.885-1.373,4.199-1.59.108-.075.635-.373,1.172-.664c2.538-1.373,3.809-2.135,3.809-2.281c0-.089.09-.161.201-.161c1.101,0,5.033-4.838,6.134-7.547.49-1.208.557-1.46.902-3.39.444-2.484.242-6.915-.4-8.785-.369-1.076-.587-2.102-.587-2.766c0-.581-.178-1.669-.395-2.418-.478-1.65-.462-1.594-.95-3.414-.821-3.06-2.457-6.774-3.762-8.537-.414-.559-.752-1.06-.752-1.114c0-.053-.441-.694-.98-1.424s-1.132-1.542-1.318-1.803c-.187-.262-.537-.714-.779-1.005-.241-.291-.439-.607-.439-.702c0-.094-.154-.309-.342-.477-.468-.417-1.221-1.321-1.221-1.467c0-.065-.241-.403-.537-.751-1.065-1.255-2.197-2.768-2.197-2.936c0-.068-.11-.247-.244-.397-.478-.532-.653-.786-1.209-1.75-.31-.538-.615-1.021-.678-1.075-.245-.208-.994-1.36-.994-1.528c0-.097-.184-.41-.408-.695-.224-.286-1.088-1.902-1.92-3.591-.831-1.69-1.702-3.38-1.935-3.756s-.423-.747-.424-.825c0-.078-.313-.781-.696-1.562-.383-.782-1.185-2.564-1.783-3.961-.598-1.396-1.436-3.154-1.862-3.906-1.254-2.214-2.436-4.759-3.083-6.64-.333-.967-.658-1.89-.722-2.051-.145-.364-.204-.566-.328-1.124-.054-.242-.158-.538-.232-.657-.136-.22-.855-2.867-.861-3.17-.002-.091.458.39,1.022,1.069.988,1.191,3.68,3.947,4.655,4.767c1.697,1.427,4.148,3.218,5.061,3.697.591.31,1.206.633,1.368.718c6.14,3.238,12.518,1.726,16.173-3.835.495-.752.907-1.412.918-1.465.01-.054.408-.845.884-1.758c3.007-5.766,3.671-8.12,3.442-12.196-.247-4.399-1.624-7.252-5.296-10.976-.756-.767-1.706-1.787-2.111-2.267-.404-.479-1.284-1.433-1.955-2.12s-1.481-1.601-1.8-2.031c-.32-.43-.739-.964-.932-1.188-.463-.534-2.085-2.817-3.016-4.243-.408-.624-1.365-2.074-2.127-3.223-.762-1.148-1.532-2.352-1.711-2.674-1.911-3.45-2.3-4.175-2.487-4.639-.119-.295-.295-.537-.392-.537s-.176-.17-.176-.379c0-.208-.085-.432-.189-.496s-.937-1.629-1.852-3.478c-.914-1.849-2.057-4.082-2.539-4.963-.925-1.689-1.598-3.542-1.759-4.844-.136-1.103-.639-2.943-.99-3.621-.163-.316-.3-.641-.304-.723-.058-1.214-3.476-6.381-5.693-8.605-.889-.891-1.528-1.602-1.42-1.58.204.043.686-.137,2.138-.798.477-.218.93-.396,1.006-.396.475,0,7.341-3.473,9.551-4.832c2.15-1.322,4.883-3.143,5.891-3.925.305-.236,1.257-.96,2.117-1.607.859-.648,1.714-1.303,1.9-1.456.185-.153.712-.518,1.171-.812c1.566-1.001,2.787-2.161,3.319-3.151.292-.544.82-1.286,1.172-1.65c1.525-1.573,3.699-4.142,4.628-5.469.399-.568.928-1.268,1.177-1.554s.551-.69.671-.898c.121-.208.668-1.026,1.217-1.819.548-.792,1.451-2.231,2.007-3.198s1.088-1.889,1.182-2.05c.095-.162.503-.953.906-1.758.404-.806.804-1.597.888-1.758s.299-.645.477-1.074c.179-.43.565-1.309.858-1.953c1.43-3.146,4.084-11.709,4.389-14.161.034-.268.199-1.237.367-2.152c1.271-6.91,1.371-18.888.203-24.312-.07-.323-.143-.762-.163-.977-.115-1.209-1.301-6.359-1.958-8.496-.281-.913-.542-1.792-.58-1.953-.182-.767-1.363-4.112-1.758-4.981-.245-.537-.509-1.188-.589-1.447-.155-.508-1.388-3.178-2.488-5.389-.858-1.724-2.907-5.222-4.165-7.111-.53-.796-1.053-1.587-1.162-1.758-.721-1.133-1.008-1.512-1.312-1.737-.19-.141-.346-.338-.346-.438c0-.204-.509-.866-1.025-1.332-.188-.169-.342-.416-.342-.548s-.116-.31-.258-.396-.603-.596-1.025-1.133c-1.311-1.668-1.86-2.264-4.5-4.882-3.493-3.464-5.749-5.486-7.303-6.547-.376-.256-.727-.522-.781-.591-.054-.068-.493-.403-.976-.743-.484-.341-1.055-.756-1.27-.922-.8-.622-4.633-3.036-6.484-4.085-1.053-.597-2.046-1.166-2.207-1.264-2.076-1.267-9.954-4.525-12.989-5.371-.537-.15-1.943-.542-3.125-.871-3.042-.847-7.425-1.702-10.547-2.058-3.59-.408-5.227-.489-9.57-.472-2.685.011-6.029.133-7.43.272m14.723,4.98c14.511,1.521,28.554,7.442,39.449,16.633.677.572.848,1.081.28.834-3.249-1.414-7.889-2.744-11.866-3.402-1.396-.23-3.374-.629-4.394-.885-25.117-6.304-50.468,8.643-57.918,34.147-9.93,33.994,15.234,69.041,49.519,68.968c12.626-.027,22.454-4.019,33.154-13.467.852-.752,2.363-2.027,3.359-2.832c2.471-2.001,5.824-5.501,7.858-8.203.93-1.236,2.035-2.58,2.456-2.988.422-.407,1.016-1.264,1.322-1.904.998-2.089,1.077-1.69.297,1.506-3.841,15.73-14.172,31.072-25.739,38.225-1.263.781-2.934,1.835-3.712,2.342-2.037,1.328-13.457,6.811-15.674,7.526-1.133.365-1.755.41-5.762.421-5.1.013-5.494.08-7.16,1.22-1.551,1.061-1.55,1.057-.088,2.054c1.626,1.108,2.35,1.333,4.807,1.493c4.542.295,5.716.749,7.925,3.061c5.212,5.454,7.312,11.612,7.307,21.429-.001,3.929-.055,4.341-1.374,10.503-1.182,5.524-1.651,8.246-1.946,11.303-.125,1.289-.432,3.354-.683,4.59-1.115,5.492-1.414,18.47-.509,22.07c1.12,4.457,2.966,9.297,4.935,12.941.652,1.208,1.758,3.514,2.457,5.125c1.483,3.418,5.744,11.999,6.879,13.853c1.778,2.906,4.55,6.973,6.001,8.804c4.207,5.311,8.386,11.565,7.991,11.96-.057.057-.7-.249-1.428-.68-6.53-3.862-12.962-4.884-20.759-3.298-1.879.383-3.925.755-4.546.827-1.476.173-1.54.355-.29.822c3.909,1.459,7.343,2.168,11.534,2.383c5.671.291,7.796.937,12.339,3.753c4.229,2.621,6.157,4.571,6.16,6.232.001.361.185,1.404.409,2.317.759,3.091.311,7.25-1.064,9.863-3.053,5.808-14.341,10.45-25.412,10.45-11.947,0-23.423-1.729-28.314-4.266-4.526-2.347-7.101-7.688-7.82-16.219-.528-6.263-1.816-13.083-4.726-25.019-3.714-15.229-9.848-22.214-16.917-19.262-2.846,1.189-6.818,4.616-9.445,8.15-.712.957-1.875,2.195-2.694,2.868-.901.739-2.172,2.121-3.391,3.686-2.704,3.471-5.36,5.65-7.908,6.488-4.491,1.477-14.153.993-23.627-1.184-1.988-.456-2.056-.606-.692-1.531c1.957-1.328,4.267-4.816,5.403-8.156.592-1.74.552-1.767-.805-.532-5.673,5.161-11.339,7.323-15.479,5.907-.859-.294-1.875-.58-2.256-.636-.899-.132-5.081-2.508-6.191-3.517l-.859-.781.514-1.62c2.458-7.747,7.903-18.452,11.316-22.248c3.2-3.559,6.998-5.091,13.199-5.324c8.483-.319,12.934-4.038,13.674-11.426c1.038-10.372.41-15.995-3.022-27.027-1.352-4.347-1.672-5.117-4.602-11.066-4.48-9.097-9.121-14.585-17.713-20.948-6.082-4.504-8.735-6.566-9.626-7.483-.484-.497-1.504-1.438-2.268-2.091-1.526-1.306-9.235-8.943-14.435-14.302-11.627-11.983-17.735-25.758-14.772-33.317c3.567-9.1,15.133-15.512,27.984-15.512c3.911,0,5.959.903,10.327,4.549c3.597,3.004,6.205,6.658,11.039,15.471c1.052,1.917,3.504,5.689,4.389,6.749.408.489,1.333,2.071,2.056,3.516c2.613,5.221,6.969,11.023,9.664,12.871c1.84,1.262,7.032,3.629,7.032,3.206c0-.063-.429-.655-.953-1.314-.524-.66-1.614-2.211-2.421-3.446-.808-1.235-2.79-3.991-4.406-6.123l-2.936-3.877-3.514-7.06c-4.295-8.632-4.572-9.436-6.066-17.608-8.239-45.065,29.349-85.361,75.147-80.562m29.035,19.336c4.661,1.008,6.605,1.562,7.582,2.157.517.315.984.573,1.038.573.233,0,4.889,2.402,5.199,2.682.188.169.341.234.341.143s.11-.033.245.129c.134.162.727.684,1.318,1.159.591.476,1.321,1.106,1.623,1.4.302.295.654.603.782.685c1.504.969,5.595,7.059,6.659,9.915.201.537.471,1.109.601,1.27.211.261.418.715.514,1.125.019.079.227.452.464.828.236.376.754,1.562,1.151,2.637c1.091,2.952,2.283,5.973,2.661,6.738.265.537.936,2.77,1.262,4.199.024.108.1.327.169.488c2.209,5.175,2.282,15.779.143,20.769-.206.481-.323.927-.259.991.063.063-.002.115-.145.115s-.209.052-.146.115-.261.876-.719,1.807c-.458.93-1.085,2.219-1.392,2.864-1.126,2.362-3.468,5.694-5.556,7.904-.268.284-1.147,1.246-1.953,2.137-.805.891-1.794,1.958-2.196,2.372-.756.778-4.12,3.647-4.681,3.993-.174.107-1.181.776-2.238,1.486-2.894,1.945-3.656,2.414-4.993,3.07-1.204.592-5.231,1.891-6.457,2.083-.344.055-1.285.233-2.091.397-2.81.573-9.717.838-12.305.474-.698-.099-1.577-.221-1.953-.272-2.62-.355-9.744-2.35-10.156-2.844-.054-.065-.537-.281-1.074-.481s-1.306-.57-1.709-.823c-.403-.252-.733-.4-.733-.328s-.153-.005-.341-.17-.738-.497-1.221-.737c-.484-.24-1.383-.778-2-1.195-.616-.417-1.19-.758-1.275-.758s-.281-.176-.436-.39c-.155-.215-.39-.391-.522-.391s-.31-.118-.396-.262c-.086-.143-.3-.341-.475-.439-1.015-.567-5.765-5.106-7.006-6.694-.268-.344-.578-.732-.687-.863-.571-.682-2.047-2.873-2.047-3.04c0-.106-.079-.222-.175-.258-.348-.13-3.416-5.799-3.576-6.608-.032-.161-.112-.337-.179-.391-.147-.119-1.479-4.004-1.607-4.687-.05-.269-.177-.71-.282-.98-.159-.409-.525-2.036-.904-4.019-.88-4.599-.494-13.521.759-17.56.166-.537.432-1.522.59-2.19.158-.667.451-1.59.653-2.05.201-.461.569-1.365.817-2.01.908-2.357,3.502-6.995,4.916-8.789.085-.107.375-.472.645-.809.27-.338.492-.654.492-.702c0-.13,1.111-1.402,2.413-2.762.63-.658,1.29-1.371,1.468-1.586.372-.451,1.553-1.498,2.644-2.344.415-.322.867-.694,1.002-.825c1.425-1.38,7.666-4.957,10.642-6.1.588-.225,1.245-.493,1.459-.594.511-.241,4.172-1.308,4.902-1.429.312-.051,1.138-.227,1.837-.39c1.118-.262,4.261-.632,6.543-.771c2.516-.153,7.726.267,10.351.836m-33.89.826c-.001.134-.813.771-1.804,1.416-29.745,19.354-29.043,63.846,1.302,82.424c6.388,3.911,16.197,7.126,21.741,7.126.137,0,.249.132.249.293c0,.355-1.227.379-4.883.095-30.671-2.384-51.097-34.811-40.967-65.036c3.618-10.794,11.496-20.026,21.533-25.234c2.725-1.414,2.834-1.456,2.829-1.084m29.026,10.532c-3.581.493-9.687,2.702-9.687,3.505c0,.094-.098.172-.218.172-.992,0-4.857,3.882-6.767,6.799-6.592,10.067-3.976,25.499,5.521,32.559.429.319.825.63.879.69c1.71,1.911,7.863,4.344,12.374,4.893c2.408.293,5.534.096,8.036-.505.752-.181,1.499-.359,1.66-.395s.315-.084.342-.106c.026-.021.114-.057.195-.08c3.045-.847,7.083-3.643,10.091-6.988c2.327-2.586,4.572-7.33,5.11-10.793.066-.43.15-.829.185-.886.035-.058.124-1.025.198-2.15.421-6.404-1.729-12.997-5.855-17.956-1.473-1.77-5.337-5.082-5.929-5.082-.112,0-.232-.076-.268-.168-.138-.353-3.174-1.847-4.82-2.372-3.952-1.26-7.501-1.625-11.047-1.137m7.583,5.337c22.058,6.145,19.442,38.344-3.109,38.272-16.794-.055-26.185-20.575-15.037-32.856c4.381-4.827,12.048-7.115,18.146-5.416M196.585,220.839c.086.516.146,1.202.133,1.524-.013.323-.106,3.531-.206,7.129-.109,3.904-.311,7.489-.501,8.887-.216,1.584-.381,5.065-.51,10.742-.181,7.941-.299,9.807-.741,11.768-.242,1.074-.187,1.05.674-.293c1.867-2.916,2.676-5.164,3.498-9.717.175-.967.53-2.501.79-3.41.26-.908.474-2.139.474-2.734s.18-3.28.398-5.965c.219-2.686.476-6.861.57-9.278.123-3.136.291-4.974.587-6.42.485-2.369.581-2.163-1.103-2.374-1.184-.149-2.2-.336-3.752-.691-.459-.105-.465-.089-.311.832m-77.474,1.036c5.538,2.896,10.863,8.611,14.561,15.625.821,1.558,2.113,3.667,2.87,4.688c2.214,2.983,3.061,4.871,4.949,11.035c2.34,7.638,3.284,14.194,2.842,19.726-.695,8.696-.961,9.351-4.104,10.13-2.163.536-5.025.904-8.491,1.093-4.378.238-6.137.642-7.734,1.779l-.561.4-1.516-1.217c-4.579-3.672-6.448-8.015-7.387-17.165-.481-4.689-.321-10.212.385-13.239.393-1.685.558-3.088.698-5.957.11-2.238.382-4.936.674-6.683c1.106-6.615,1.679-14.624,1.303-18.221-.249-2.389-.263-2.775-.101-2.775.065,0,.79.351,1.612.781m121.784,19.482c1.809,3.669,4.675,8.663,7.176,12.504c4.029,6.188,5.497,8.015,11.83,14.719c4.94,5.229,5.155,8.98.971,16.937-4.031,7.666-8.122,8.331-15.38,2.501-7.418-5.959-9.095-9.415-9.301-19.17l-.108-5.078.803-3.809c1.539-7.301,2.627-14.113,2.881-18.034.16-2.488.178-2.497,1.128-.57" fill="#8c8c8c" fill-rule="evenodd"/><path d="M199.369,66.938c.351.044.878.043,1.172-.002.293-.044.006-.08-.639-.079-.644.001-.884.038-.533.081m2.828-.006c.188.049.496.049.684,0c.188-.05.034-.09-.342-.09s-.53.04-.342.09m2.051.006c.349.043.92.043,1.27,0c.349-.043.063-.079-.635-.079s-.984.036-.635.079m-8.005.192c.242.047.594.045.781-.004.186-.049-.012-.087-.442-.085-.43.003-.582.043-.339.089m.925,5.145c-35.724,2.974-62.572,30.918-63.697,66.299-.317,9.98,1.928,22.08,5.2,28.028.62,1.127,2.098,4.028,3.283,6.445c1.969,4.015,2.361,4.664,4.539,7.519c2.868,3.76,3.46,4.584,5.47,7.618.855,1.289,1.832,2.716,2.173,3.172s.578.87.528.92c-.331.331-5.061-1.695-6.933-2.97-2.87-1.955-7.505-8.096-9.893-13.109-.647-1.356-1.462-2.787-1.813-3.179-.925-1.035-2.785-3.855-4.444-6.737-6.338-11.008-7.58-12.749-11.246-15.767-4.477-3.685-6.19-4.42-10.288-4.42-12.495,0-23.688,6.118-27.582,15.074-3.25,7.478,2.958,21.48,15.006,33.848c5.825,5.98,11.694,11.773,14.248,14.062c1.343,1.203,2.573,2.349,2.734,2.545s.952.84,1.758,1.431s2.432,1.837,3.613,2.769c1.182.932,3.262,2.499,4.623,3.482c5.832,4.212,11.412,10.351,14.673,16.144c1.339,2.377,5.011,10.102,5.572,11.719c3.906,11.264,5.383,20.936,4.31,28.223-.103.698-.259,1.972-.346,2.832-.688,6.753-5.636,10.858-13.207,10.955-8.092.103-12.899,2.958-16.833,9.995-4.146,7.418-5.7,10.763-7.582,16.322l-.915,2.702.458.489c1.001,1.069,5.824,3.775,6.728,3.775.286,0,1.318.274,2.293.609c3.965,1.361,8.969-.641,15.513-6.207c1.075-.914,1.092-.871.451,1.122-1.054,3.279-3.19,6.56-5.29,8.128-1.206.9-1.211.896,1.759,1.499c11.257,2.285,20.518,2.339,24.054.141c2.578-1.603,3.871-2.784,6.023-5.503c1.298-1.639,2.693-3.161,3.516-3.833.749-.612,1.924-1.865,2.61-2.783c7.83-10.483,15.381-11.738,20.887-3.471c3.451,5.182,4.51,8.357,8.064,24.165c1.073,4.773,2.198,11.698,2.517,15.484.747,8.884,3.263,13.872,8.203,16.262c7.657,3.704,28,5.21,37.796,2.798c12.493-3.076,18.586-9.996,16.313-18.528-.158-.591-.344-1.602-.415-2.246-.265-2.422-1.877-4.042-7.101-7.138-3.893-2.307-5.806-2.837-11.242-3.113-3.838-.195-7.749-1.018-11.253-2.37-1.888-.728-1.851-.776,1.005-1.304c1.235-.228,3.345-.648,4.687-.933c6.553-1.391,13.565-.109,19.868,3.634l1.02.605-.414-.94c-.637-1.446-3.728-5.85-7.613-10.847-4.298-5.529-9.643-14.926-12.863-22.614-.472-1.128-1.746-3.808-2.831-5.957-2.065-4.088-3.933-9.152-4.719-12.793-.778-3.608-.41-16.25.623-21.387.259-1.289.564-3.31.678-4.492.308-3.213.883-6.48,2.115-12.011l1.109-4.981-.013-5.566c-.024-9.939-1.945-15.464-7.286-20.954-2.145-2.205-2.378-2.293-7.317-2.764-3.18-.303-4.175-.643-5.697-1.948l-.781-.67.652-.678c.359-.373,1.106-.926,1.661-1.23l1.008-.552l4.901-.029c5.764-.036,5.416.043,10.528-2.372c7.991-3.776,10.073-4.838,12.305-6.28c1.289-.833,3.115-1.992,4.058-2.575c10.274-6.36,21.013-23.081,24.42-38.025.339-1.485.289-1.512-.375-.195-.284.564-.887,1.377-1.341,1.807-.454.429-1.514,1.704-2.357,2.832-1.993,2.668-5.641,6.4-8.585,8.783-1.289,1.043-2.959,2.461-3.711,3.151-27.885,25.581-72.619,10.294-82.32-28.131-9.453-37.443,22.141-71.583,58.199-62.888c1.343.324,3.757.812,5.365,1.084c3.301.559,6.656,1.474,9.501,2.591c1.062.417,1.931.724,1.931.683c0-.146-3.904-3.182-5.722-4.449-13.369-9.322-30.789-14.117-46.524-12.807m-28.467,2.347c-.832.425-1.513.817-1.513.871c0,.087,3.105-1.407,3.304-1.59.276-.255-.483.05-1.791.719m85.596,12.194c.364.376.706.684.76.684s-.2-.308-.565-.684c-.364-.376-.706-.683-.76-.683s.2.307.565.683M149.41,88.623l-1.851,1.904l1.904-1.851c1.769-1.72,1.993-1.957,1.852-1.957-.029,0-.886.857-1.905,1.904m107.817.928c1.016,1.02,1.891,1.855,1.945,1.855s-.734-.835-1.75-1.855c-1.016-1.021-1.892-1.856-1.946-1.856-.053,0,.734.835,1.751,1.856m-30.518,1.411c.349.043.92.043,1.27,0c.349-.044.063-.079-.635-.079s-.984.035-.635.079m-2.146.192c.243.046.594.045.781-.004s-.012-.087-.442-.085c-.429.002-.582.042-.339.089m-1.467.192c.188.049.495.049.683,0c.188-.05.034-.09-.341-.09-.376,0-.53.04-.342.09m-20.85,2.127c-8.358,4.208-15.074,11.061-19.41,19.808-15.427,31.122,6.472,69.282,40.406,70.411c3.494.116,3.55.042.293-.391-44.804-5.958-58.469-64.093-21.014-89.401c2.659-1.797,2.607-1.878-.275-.427m57.715-1.029c0,.034.286.319.635.635l.634.573-.573-.634c-.535-.592-.696-.725-.696-.574m-44.006.561c-.625.217-1.101.429-1.06.471.042.042.685-.137,1.428-.396.744-.26,1.221-.472,1.06-.472-.161.001-.804.179-1.428.397m-3.65,1.429c-.269.153-.401.279-.293.279.107,0,.415-.126.683-.279.269-.154.401-.28.293-.28-.107,0-.415.126-.683.28m-70.703,3.418c-.23.322-.374.586-.32.586s.285-.264.515-.586c.229-.323.373-.586.319-.586-.053,0-.285.263-.514.586m63.913.298c-.563.379-1.023.731-1.023.783s.484-.227,1.074-.619c.939-.623,1.215-.853,1.023-.853-.028,0-.511.31-1.074.689m51.712,3.12c.583.59,1.104,1.074,1.158,1.074s-.38-.484-.963-1.074c-.584-.591-1.105-1.075-1.159-1.075-.053,0,.38.484.964,1.075m-57.813,1.757c-.474.484-.819.879-.765.879s.486-.395.96-.879c.475-.483.819-.879.765-.879-.053,0-.486.396-.96.879m35.791-.353c.188.049.496.049.684,0s.034-.09-.342-.09-.53.041-.342.09m1.467.003c.243.047.595.045.781-.004.187-.049-.012-.087-.441-.085-.43.002-.583.042-.34.089m-3.322.195c.241.047.637.047.879,0c.241-.046.043-.084-.44-.084s-.681.038-.439.084m-3.37.644c-.246.105-.282.167-.097.167.161,0,.469-.075.683-.167.247-.106.283-.168.098-.168-.161,0-.469.075-.684.168m-92.578.976c-.166.322-.259.586-.205.586s.234-.264.401-.586c.166-.322.259-.586.205-.586s-.234.264-.401.586m88.526.599c-.403.213-.733.431-.733.484c0,.087,1.543-.634,1.742-.814.225-.203-.362-.011-1.009.33m-2.152,1.264c-.401.272-.729.537-.729.588c0,.052.351-.139.781-.423.682-.452.913-.661.729-.661-.029,0-.38.223-.781.496m9.232,1.931c-19.323,4.289-19.146,32.146.238,37.535c15.609,4.339,28.419-11.758,21.155-26.583-3.934-8.027-13.2-12.77-21.393-10.952m-13.001,1.138l-.573.635.634-.574c.592-.535.725-.696.574-.696-.034,0-.319.286-.635.635m42.507-.537c0,.107.125.415.279.683.153.269.279.401.279.293c0-.107-.126-.415-.279-.683-.154-.269-.279-.401-.279-.293m-8.119,1.269c.419.43.806.782.86.782s-.246-.352-.665-.782c-.42-.429-.807-.781-.861-.781-.053,0,.246.352.666.781m9.608,2.049c.179.374.359.646.402.604.089-.09-.504-1.286-.637-1.286-.05,0,.056.307.235.682m-7.277.75c.301.394.586.717.635.717.135,0-.71-1.143-.96-1.297-.122-.076.024.185.325.58m8.256,1.2c.288.588.556,1.036.596.996.088-.088-.897-2.065-1.028-2.065-.051,0,.143.481.432,1.069m-5.958,2.54c.233.481.458.841.499.8.088-.088-.701-1.675-.833-1.675-.05,0,.1.394.334.875m7.299.688c.072.268.212.62.312.781.125.204.141.144.05-.195-.072-.269-.212-.62-.312-.781-.126-.204-.141-.145-.05.195m-78.516,4.408c-.072.287-.093.558-.047.604s.142-.15.214-.436c.072-.287.093-.558.047-.604s-.142.15-.214.436m73.164.084c.01.507.317,1.341.324.879.003-.215-.07-.566-.162-.781-.103-.24-.166-.277-.162-.098m-73.934,2.816c-.175.698-.312,1.426-.304,1.619.008.192.185-.344.393-1.193.209-.849.346-1.578.305-1.619-.042-.041-.219.496-.394,1.193m82.131-.082c0,.162.076.469.168.684.106.246.168.282.168.098c0-.162-.076-.469-.168-.684-.106-.246-.168-.282-.168-.098m-56.015,2.246c.001.86.035,1.187.076.728.041-.46.041-1.163-.001-1.563s-.076-.024-.075.835m48.631.879c0,.806.035,1.136.077.733s.042-1.062,0-1.465-.077-.073-.077.732m-75.358,0c-.076.551-.097,1.043-.046,1.094.05.05.151-.361.225-.915.073-.553.094-1.045.046-1.093s-.149.364-.225.914m-.244,2.051c.002.43.042.583.089.34s.045-.595-.004-.782c-.049-.186-.087.012-.085.442m75.395,1.074c0,.484.038.682.084.44.047-.242.047-.637,0-.879-.046-.242-.084-.044-.084.439m-75.571,1.758c0,.913.033,1.287.075.83.041-.456.041-1.203,0-1.66-.042-.456-.075-.083-.075.83m27.698-.879c-.002.416.501,2.089.53,1.758.009-.107-.106-.635-.255-1.172-.15-.537-.273-.801-.275-.586m47.264,2.276c-.128.553-.197,1.041-.153,1.084.043.044.186-.37.318-.918.131-.549.2-1.037.153-1.084-.048-.048-.191.366-.318.918m-132.602.556c0,.376.04.53.089.342s.049-.495,0-.683-.089-.035-.089.341m57.641,1.856c-.001.967.032,1.387.073.933.041-.453.042-1.244.001-1.757-.04-.514-.074-.143-.074.824m85.942.879c0,1.235.032,1.74.07,1.123.039-.618.039-1.629,0-2.246-.038-.618-.07-.113-.07,1.123m7.784-.586c0,.376.04.53.089.342s.049-.496,0-.684-.089-.034-.089.342m-151.542,1.367c0,.806.034,1.135.076.732.042-.402.042-1.062,0-1.464-.042-.403-.076-.074-.076.732m87.434-.707c0,.21.581,1.293.694,1.293.053,0-.048-.286-.226-.635-.362-.713-.468-.861-.468-.658m64.303,1.293c0,.376.04.53.089.342.05-.188.05-.496,0-.684-.049-.188-.089-.034-.089.342m-62.605,1.773c.194.33.478.704.63.83.153.126.031-.145-.27-.601-.632-.959-.882-1.117-.36-.229m-30.95.375c0,.376.041.53.09.342s.049-.495,0-.683-.09-.035-.09.341m-76.168-.055c.295.045.779.045,1.074,0c.296-.045.054-.081-.537-.081s-.832.036-.537.081m-3.32.19c.188.049.495.049.683,0s.035-.089-.341-.089-.53.04-.342.089m173.273,3.186c0,1.772.029,2.497.065,1.611.037-.886.037-2.336,0-3.223-.036-.886-.065-.161-.065,1.612m-61.408-1.697c0,.034.286.319.635.635l.635.573-.574-.634c-.535-.592-.696-.725-.696-.574m-90.38,4.529c.002.429.042.582.088.339.047-.243.045-.594-.003-.781-.049-.187-.088.012-.085.442m59.544.683c-.003.161.115.557.263.879.345.754.35.404.007-.488-.145-.376-.266-.552-.27-.391m92.034,1.172c0,.806.035,1.135.077.733.042-.403.042-1.062,0-1.465s-.077-.074-.077.732m-153.198.244c.479.511.896.928.927.928.147,0-.008-.175-.87-.985l-.928-.87.871.927m-44.039,2.344l-1.949,2.002l2.002-1.949c1.101-1.073,2.002-1.974,2.002-2.002c0-.142-.244.09-2.055,1.949m105.961-1.54c0,.232.56,1.491.664,1.491.053,0-.039-.329-.206-.732-.314-.756-.458-.996-.458-.759m91.069,1.491c0,.484.038.681.084.44.047-.242.047-.638,0-.879-.046-.242-.084-.044-.084.439m-39.36.333c.242.047.637.047.879,0c.241-.046.044-.084-.44-.084-.483,0-.681.038-.439.084m-2.244.198c.297.045.737.044.977-.003.24-.046-.003-.083-.54-.081-.537.001-.733.039-.437.084m-46.633,4.157c.167.322.347.586.401.586.053,0-.039-.264-.206-.586-.166-.323-.347-.586-.4-.586-.054,0,.038.263.205.586m-113.193,1.19c-.225.441-.375.834-.334.875s.266-.319.499-.8c.533-1.096.389-1.16-.165-.075m-1.651,4.278c-.074.338-.094.655-.044.705s.146-.191.215-.534c.163-.814.005-.972-.171-.171m185.925.049l-.573.635.634-.574c.592-.534.725-.695.574-.695-.033,0-.319.285-.635.634M76.413,163.086c0,.376.04.53.089.342s.049-.496,0-.684-.089-.034-.089.342m184.127.732l-1.067,1.123l1.123-1.067c1.043-.992,1.212-1.179,1.067-1.179-.03,0-.536.506-1.123,1.123m-64.251-.866c0,.033.286.319.635.635l.635.573-.574-.635c-.535-.591-.696-.724-.696-.573M76.225,165.234c0,.484.038.682.085.44.046-.242.046-.637,0-.879-.047-.242-.085-.044-.085.439m122.798.684c.365.376.707.684.761.684.053,0-.201-.308-.565-.684-.365-.376-.707-.684-.76-.684-.054,0,.2.308.564.684m58.492,1.123l-1.753,1.807l1.806-1.754c1.678-1.629,1.896-1.86,1.754-1.86-.029,0-.842.813-1.807,1.807m-57.124.012c0,.034.285.32.634.635l.635.574-.573-.635c-.535-.592-.696-.725-.696-.574m51.211,4.71c-.907.642-1.035.825-.269.387.358-.205.742-.483.854-.617.289-.345.154-.292-.585.23m20.566,5.776c-.379.752-.645,1.367-.591,1.367s.408-.615.786-1.367c.379-.752.645-1.367.591-1.367s-.407.615-.786,1.367m-29.883-.976c-.246.105-.282.167-.097.167.161,0,.468-.075.683-.167.246-.106.282-.168.098-.168-.161,0-.469.075-.684.168m-2.832.79c-.214.144-.135.163.293.067.718-.161.874-.273.374-.269-.205.002-.506.093-.667.202m-3.857.711c.188.049.495.049.683,0s.034-.089-.341-.089c-.376,0-.53.04-.342.089m-7.422.401c.725.038,1.911.038,2.637,0c.725-.037.131-.068-1.319-.068s-2.043.031-1.318.068M80.485,180.762c0,.107.169.503.374.879.206.376.375.595.375.488c0-.108-.169-.503-.375-.879-.205-.376-.374-.596-.374-.488m1.058,2.246c.167.322.347.586.401.586.053,0-.039-.264-.206-.586-.166-.322-.347-.586-.4-.586-.054,0,.038.264.205.586m179.775,10.498l-.673.732.732-.673c.682-.626.822-.792.673-.792-.033,0-.362.33-.732.733M90.234,195.215c.365.376.707.683.761.683.053,0-.201-.307-.565-.683-.365-.376-.707-.684-.761-.684-.053,0,.201.308.565.684m2.149,2.344c.364.376.706.683.76.683s-.2-.307-.565-.683c-.364-.376-.706-.684-.76-.684s.2.308.565.684m2.93,2.929c.583.591,1.104,1.075,1.158,1.075s-.38-.484-.963-1.075c-.584-.591-1.105-1.074-1.159-1.074-.053,0,.38.483.964,1.074m3.125,3.081c0,.03.681.711,1.513,1.514l1.514,1.46-1.46-1.514c-1.356-1.406-1.567-1.602-1.567-1.46m4.394,4.439c.746.752,1.401,1.367,1.454,1.367.054,0-.512-.615-1.259-1.367-.746-.752-1.4-1.367-1.454-1.367s.513.615,1.259,1.367m3.32,3.32c.42.43.807.781.861.781s-.246-.351-.665-.781c-.42-.43-.807-.781-.861-.781s.246.351.665.781m1.953,1.758c.42.43.807.781.861.781s-.246-.351-.665-.781c-.42-.43-.807-.781-.861-.781-.053,0,.246.351.665.781m125.098,1.66c.692.698,1.302,1.27,1.356,1.27s-.469-.572-1.161-1.27-1.302-1.269-1.355-1.269c-.054,0,.468.571,1.16,1.269m-33.789,5.676c1.128.178,2.242.359,2.477.401.381.068.406.142.242.71-.48,1.665-.787,4.404-.961,8.573-.104,2.509-.317,6.056-.472,7.882s-.344,4.46-.419,5.853c-.083,1.523-.286,3.042-.51,3.809-.205.702-.55,2.243-.766,3.424-.788,4.297-1.434,6.172-3.045,8.838-1.006,1.664-1.593,2.298-1.359,1.465.539-1.914.721-4.5.899-12.744.129-6.041.283-9.205.565-11.621.416-3.574.644-14.886.33-16.386l-.16-.76.564.115c.31.064,1.487.262,2.615.441m-88.232.379c.002.429.042.582.089.339s.045-.594-.004-.781-.087.012-.085.442m6.282.808c.78,2.033.337,12.165-.861,19.7-.637,4.01-.767,5.222-.892,8.322-.089,2.198-.253,3.557-.611,5.057-.941,3.936-.826,12.262.251,18.164c1.043,5.714,3.423,9.868,7.191,12.549l.959.683.855-.542c1.443-.915,3.549-1.357,7.425-1.559c4.721-.245,8.739-.897,10.208-1.657c2.048-1.059,2.937-12.089,1.589-19.713-1.569-8.871-4.267-16.511-7.203-20.401-.761-1.007-2.048-3.094-2.861-4.637-2.803-5.32-4.407-7.435-8.269-10.901-3.845-3.451-8.266-6.329-7.781-5.065m-6.083.852c0,.483.038.681.085.439.047-.241.047-.637,0-.879-.047-.241-.085-.043-.085.44m126.914-.684c0,.108.126.415.279.684.154.268.279.4.279.293c0-.108-.125-.415-.279-.684-.153-.268-.279-.4-.279-.293m-126.726,2.442c0,.376.04.53.089.342s.049-.496,0-.684-.089-.034-.089.342m.195,7.617c0,.376.04.53.089.342.05-.188.05-.496,0-.684-.049-.188-.089-.034-.089.342M239.95,241.998c-.31,4.199-1.908,13.877-3.174,19.232-.78,3.299-.637,11.681.262,15.333c1.651,6.707,11.376,15.302,16.966,14.996c2.92-.16,4.212-1.327,6.717-6.07c4.57-8.654,4.166-11.349-2.817-18.794-6.618-7.056-12.075-15.092-17.232-25.381l-.585-1.166-.137,1.85M109.616,252.734c0,.376.04.53.089.342s.049-.495,0-.683-.089-.035-.089.341m-.188,2.735c0,.483.038.681.085.439.046-.241.046-.637,0-.879-.047-.241-.085-.044-.085.44m-.192,3.222c.001.538.039.734.084.437s.044-.736-.003-.976c-.046-.241-.083.002-.081.539m150.139,1.954c.364.376.707.683.76.683.054,0-.2-.307-.565-.683-.364-.376-.706-.684-.76-.684s.201.308.565.684m.977.94c0,.033.285.319.634.634l.635.574-.574-.635c-.534-.591-.695-.724-.695-.573m-151.123,4.138c.002.429.042.582.089.339s.045-.594-.004-.781-.087.012-.085.442m155.224.354c0,.033.286.319.635.635l.635.573-.574-.635c-.535-.591-.696-.724-.696-.573m-155.029,2.38c.002.43.042.583.089.34s.045-.595-.004-.782c-.049-.186-.087.012-.085.442m.192,1.856c0,.375.04.529.089.341s.049-.495,0-.683-.089-.034-.089.342m.195,1.562c0,.376.04.53.089.342s.049-.496,0-.684-.089-.034-.089.342m159.007,4.883c0,.913.034,1.286.075.83.041-.457.041-1.204,0-1.66-.041-.457-.075-.083-.075.83m-158.048,0c0,.161.075.469.168.683.105.247.167.283.167.098c0-.161-.075-.469-.167-.684-.106-.246-.168-.282-.168-.097m1.158,3.613c0,.108.126.415.279.684.154.268.279.4.279.293c0-.108-.125-.415-.279-.684-.153-.268-.279-.4-.279-.293m1.879,3.628c.194.331.478.704.631.83.152.126.031-.144-.271-.6-.632-.959-.881-1.118-.36-.23m121.349.918c0,.119.08.265.177.326.098.06.154.263.126.451-.028.187-.013.227.035.087.069-.207.147-.208.411-.006.179.136.106-.013-.163-.332-.268-.319-.51-.616-.537-.661s-.049.016-.049.135m-118.652,2.388c.746.752,1.401,1.367,1.454,1.367.054,0-.513-.615-1.259-1.367s-1.4-1.367-1.454-1.367.513.615,1.259,1.367m119.629-1.111c0,.034.285.319.635.635l.634.573-.573-.634c-.535-.592-.696-.725-.696-.574m29.199,1.697c-.167.322-.259.586-.205.586.053,0,.234-.264.4-.586.167-.323.259-.586.206-.586-.054,0-.234.263-.401.586m-26.562,1.172c.746.751,1.4,1.367,1.454,1.367s-.513-.616-1.259-1.367c-.746-.752-1.401-1.368-1.455-1.368-.053,0,.513.616,1.26,1.368m-119.773.296c.082.091-.088.412-.378.715-.291.303-.484.551-.43.551.333,0,1.155-1.143.919-1.279-.143-.083-.193-.077-.111.013m-1.724,2.291l-.574.635.635-.573c.349-.316.635-.602.635-.635c0-.151-.161-.018-.696.573m144.342,1.954l-1.166,1.22l1.221-1.166c.671-.641,1.221-1.19,1.221-1.22c0-.145-.193.032-1.276,1.166m-23.138,1.197c0,.21.581,1.293.693,1.293.054,0-.047-.286-.225-.635-.363-.713-.468-.862-.468-.658m19.921,1.097c-.376.206-.613.378-.527.383.207.011,1.309-.562,1.309-.681c0-.127-.012-.123-.782.298m-145.019,1.563c-.167.322-.259.586-.205.586.053,0,.234-.264.4-.586.167-.322.259-.586.206-.586-.054,0-.234.264-.401.586m139.795-.446c.295.045.779.045,1.074,0s.054-.081-.537-.081-.833.036-.537.081m-77.197,17.926c-.801.806-1.412,1.465-1.358,1.465s.753-.659,1.553-1.465c.8-.805,1.411-1.464,1.357-1.464-.053,0-.752.659-1.552,1.464m-2.649,2.686l-.574.635.635-.574c.349-.315.634-.601.634-.635c0-.151-.161-.018-.695.574m-67.705,3.564c.113.215.628.787,1.143,1.27l.936.879-1.056-1.172c-.581-.645-1.096-1.216-1.143-1.27-.048-.053.006.079.12.293m61.174,4.883c-.475.484-.819.879-.765.879s.486-.395.96-.879c.475-.483.819-.879.765-.879s-.486.396-.96.879m-6.348,5.095l-.586.504.635-.42c.349-.231.635-.458.635-.505c0-.146-.083-.095-.684.421m-2.832,1.741c-.268.154-.4.279-.293.279.108,0,.415-.125.684-.279.268-.153.4-.279.293-.279-.108,0-.415.126-.684.279m-1.318.495c-.654.262-.532.396.146.159.323-.112.586-.239.586-.282c0-.116-.237-.076-.732.123m-19.287.591c.429.088,1.045.155,1.367.148.439-.01.366-.052-.293-.17-1.179-.209-2.103-.191-1.074.022m2.392.322c.242.046.638.046.879,0c.242-.047.044-.085-.439-.085-.484,0-.681.038-.44.085m1.956.195c.243.047.594.045.781-.004s-.012-.087-.442-.085c-.429.002-.582.042-.339.089m9.668.002c.297.045.736.044.977-.003.24-.046-.003-.083-.54-.081-.537.001-.734.039-.437.084m-5.569.2c.779.037,2.053.037,2.832,0s.142-.067-1.416-.067-2.195.03-1.416.067m117.08.925c.234.481.459.841.5.8.088-.088-.701-1.674-.833-1.674-.051,0,.1.393.333.874m4.889,17.29c0,.376.04.529.089.341.05-.188.05-.495,0-.683-.049-.188-.089-.034-.089.342m-72.851,1.172c0,.376.04.529.089.341s.049-.495,0-.683-.089-.034-.089.342m72.866,3.027c.001.644.038.885.081.534.044-.352.043-.879-.002-1.172-.044-.294-.08-.007-.079.638m-69.298,9.082c.166.322.346.586.4.586s-.039-.264-.205-.586c-.167-.322-.347-.586-.401-.586s.039.264.206.586m65.417.83l-.574.635.635-.574c.592-.535.725-.696.574-.696-.034,0-.32.286-.635.635m-63.171,2.197c.364.376.706.684.76.684s-.201-.308-.565-.684-.707-.683-.76-.683c-.054,0,.2.307.565.683m60.827.147l-.573.635.634-.574c.592-.535.725-.696.574-.696-.034,0-.319.286-.635.635m-56.726,2.976c0,.134,1.196.727,1.285.638.043-.043-.229-.224-.604-.402-.374-.179-.681-.285-.681-.236m17.142,4.343c.351.044.879.043,1.172-.002.294-.045.007-.08-.638-.079s-.885.038-.534.081m2.341.195c.349.043.92.043,1.269,0s.064-.079-.635-.079c-.698,0-.984.036-.634.079m3.027.196c.403.043,1.062.043,1.465,0c.403-.042.073-.076-.733-.076-.805,0-1.135.034-.732.076m4.639.249c2.501.158,6.75.236,6.624.121-.045-.041-2.059-.116-4.476-.168-2.807-.061-3.583-.043-2.148.047m7.763-.058c.242.047.638.047.879,0c.242-.046.044-.084-.439-.084-.484,0-.681.038-.44.084" fill="#fbf3eb" fill-rule="evenodd"/><path d="M197.903,72.21c.297.045.736.044.977-.002.24-.047-.003-.083-.54-.082-.537.002-.734.04-.437.084m8.008,0c.297.045.736.044.976-.002.241-.047-.002-.083-.539-.082-.537.002-.734.04-.437.084m-10.55.19c.188.049.496.049.684,0s.034-.089-.342-.089-.53.04-.342.089m25.106,11.534c.675.038,1.73.038,2.343-.001.614-.038.061-.07-1.228-.069-1.289,0-1.791.032-1.115.07m-67.25,8.302l-1.166,1.221l1.22-1.166c.672-.641,1.221-1.19,1.221-1.22c0-.145-.193.031-1.275,1.165M187.585,97.9l-.573.635.634-.573c.35-.316.635-.602.635-.635c0-.151-.161-.018-.696.573m7.43,2.149l-1.558,1.611l1.611-1.558c1.497-1.447,1.701-1.664,1.558-1.664-.029,0-.754.725-1.611,1.611m40.874,7.907c.456.041,1.203.041,1.66,0c.456-.042.083-.075-.83-.075s-1.287.033-.83.075m-17.461,18.411c0,.913.033,1.287.074.83.042-.456.042-1.203,0-1.66-.041-.456-.074-.083-.074.83m38.086,1.758c0,.913.033,1.287.074.83.041-.456.041-1.204,0-1.66-.041-.457-.074-.083-.074.83m-83.617,2.344c0,.376.04.53.089.342s.049-.496,0-.684-.089-.034-.089.342m4.893,1.855c.002.537.04.734.085.437.044-.297.043-.736-.003-.977-.046-.24-.083.003-.082.54m2.951,2.442c0,1.45.03,2.043.068,1.318.037-.725.037-1.912,0-2.637-.038-.725-.068-.132-.068,1.319m-8.021.097c.001.752.037,1.036.079.631.042-.406.041-1.021-.002-1.367-.043-.347-.078-.016-.077.736m-39.268,1.465c0,.484.038.681.084.44.047-.242.047-.638,0-.879-.046-.242-.084-.044-.084.439m44.343.488c.001.645.037.885.081.534.043-.351.042-.878-.002-1.172-.045-.293-.08-.006-.079.638m-44.343,8.301c0,.484.038.681.084.44.047-.242.047-.638,0-.879-.046-.242-.084-.044-.084.439m-24.315.926c.568.039,1.447.039,1.954-.001.506-.04.042-.073-1.032-.072-1.075,0-1.489.033-.922.073m128.607.581c.296.045.779.045,1.074,0c.296-.044.054-.081-.537-.081s-.832.037-.537.081M86.421,155.127l-1.362,1.416l1.416-1.362c1.315-1.265,1.505-1.47,1.362-1.47-.03,0-.667.637-1.416,1.416m186.842,3.233c-.123.229-.12.451.008.635.169.243.184.241.11-.011-.047-.161-.007-.446.09-.634.096-.188.132-.342.078-.342s-.183.158-.286.352M81.515,165.918c-.001.967.032,1.387.073.934.041-.454.041-1.245.001-1.758-.04-.514-.074-.143-.074.824m109.688,3.076c.479.51.896.928.928.928.146,0-.009-.175-.871-.985l-.928-.871.871.928m3.817.342c.529.537,1.005.977,1.059.977s-.335-.44-.864-.977-1.006-.977-1.06-.977c-.053,0,.335.44.865.977m-1.669,1.807c.479.51.897.927.928.927.147,0-.008-.175-.871-.984l-.928-.871.871.928m69.039.195l-.574.635.635-.574c.592-.535.725-.696.574-.696-.034,0-.319.286-.635.635m-74.988.928c.42.429.807.781.861.781s-.246-.352-.665-.781c-.42-.43-.807-.782-.861-.782s.246.352.665.782m2.832,2.832c.365.376.707.683.761.683.053,0-.201-.307-.565-.683-.365-.376-.707-.684-.761-.684-.053,0,.201.308.565.684m35.01,8.435c.188.049.496.049.684,0s.034-.089-.342-.089-.53.04-.342.089m-4.001.199c.242.047.594.045.781-.004.186-.049-.012-.087-.442-.085s-.582.042-.339.089m1.853,5.085c.725.037,1.911.037,2.636,0c.726-.038.132-.069-1.318-.069s-2.043.031-1.318.069m31.787,3.859c-.475.483-.819.879-.765.879s.486-.396.96-.879c.475-.484.819-.879.765-.879s-.486.395-.96.879m-155.371,4.59c.419.429.807.781.86.781.054,0-.245-.352-.665-.781-.42-.43-.807-.782-.86-.782-.054,0,.245.352.665.782m3.41,3.369c.809.862.984,1.017.984.871c0-.032-.417-.449-.927-.928l-.928-.871.871.928m4.296,4.297c.81.862.985,1.017.985.87c0-.031-.417-.448-.928-.927l-.927-.871.87.928m110.901,4.194c.351.043.878.042,1.172-.002.293-.045.006-.08-.639-.079-.644.001-.884.037-.533.081m3.906,0c.351.043.878.042,1.172-.002.293-.045.006-.08-.638-.079-.645.001-.885.037-.534.081m3.219-.007c.188.049.496.049.684,0s.034-.089-.342-.089-.53.04-.342.089m-111.572,1.916c.692.698,1.302,1.27,1.356,1.27.053,0-.469-.572-1.161-1.27s-1.302-1.269-1.356-1.269c-.053,0,.469.571,1.161,1.269m106.985,3.166c.243.046.594.045.781-.004s-.012-.087-.442-.085-.582.042-.339.089m6.589,2.596c.42.43.807.781.861.781.053,0-.246-.351-.666-.781-.419-.43-.806-.781-.86-.781s.246.351.665.781m-99.129,5.517c.809.863.985,1.018.985.871c0-.031-.418-.449-.928-.928l-.928-.87.871.927m3.231,3.077c.637.644,1.203,1.172,1.257,1.172s-.424-.528-1.062-1.172c-.638-.645-1.204-1.172-1.257-1.172-.054,0,.424.527,1.062,1.172m-13.514,1.269c.001.645.038.885.081.534s.043-.879-.002-1.172c-.045-.294-.08-.006-.079.638m7.166-.195c.364.376.707.683.76.683.054,0-.2-.307-.565-.683-.364-.376-.706-.684-.76-.684s.201.308.565.684m-7.373,4.687c.003.43.043.583.089.34.047-.243.045-.595-.004-.781-.049-.187-.087.012-.085.441m116.993,2.149c.002.429.042.582.088.339.047-.243.045-.594-.003-.781-.049-.187-.088.012-.085.442m.224,5.273c0,1.612.03,2.245.067,1.407.037-.837.036-2.155-.001-2.929s-.067-.089-.066,1.522m-119.166,9.473c0,.483.038.681.085.439.046-.241.046-.637,0-.879-.047-.241-.085-.044-.085.44m-1.18,9.766c0,.375.041.529.09.341s.049-.495,0-.683-.09-.034-.09.342m-.167,4.589c0,1.182.032,1.64.071,1.019.039-.622.039-1.589,0-2.149-.04-.56-.072-.051-.071,1.13m141.724,2.344c.692.698,1.302,1.27,1.356,1.27.053,0-.469-.572-1.161-1.27s-1.302-1.269-1.356-1.269.469.571,1.161,1.269m-19.877-.488c0,.376.04.53.089.342.05-.188.05-.496,0-.684-.049-.188-.089-.034-.089.342m.028,4.394c0,1.182.032,1.64.071,1.019.039-.622.039-1.589,0-2.149-.04-.56-.072-.051-.071,1.13m-92.02-1.269c0,.376.04.53.089.342s.049-.496,0-.684-.089-.034-.089.342m5.103,2.734c0,1.021.033,1.438.073.928.041-.51.041-1.345,0-1.856-.04-.51-.073-.092-.073.928m80.652,1.563c0,.591.037.832.082.537.044-.296.044-.779,0-1.074-.045-.296-.082-.054-.082.537m-85.745.879c.002.537.04.733.085.436s.043-.736-.003-.976-.083.002-.082.54m92.177.293c0,.376.041.529.09.341s.049-.495,0-.683-.09-.034-.09.342m-87.3,1.074c.002.429.042.582.089.339.046-.243.045-.594-.004-.781s-.087.012-.085.442m80.687,2.246c0,1.128.032,1.589.071,1.025.04-.564.04-1.487,0-2.051-.039-.563-.071-.102-.071,1.026M143.991,275c0,.376.04.53.089.342s.049-.496,0-.684-.089-.034-.089.342m-.196,1.953c0,.376.041.53.09.342s.049-.496,0-.684-.09-.034-.09.342m-.195,1.758c0,.376.04.53.089.342s.049-.496,0-.684-.089-.034-.089.342m-23.296,4.932c.81.862.985,1.017.985.87c0-.031-.417-.449-.928-.927l-.927-.871.87.928m109.429-.245c0,.376.04.53.089.342s.049-.495,0-.683-.089-.035-.089.341m-99.308.73c.459.041,1.163.04,1.563-.002s.024-.075-.836-.075c-.859.001-1.186.035-.727.077m112.055,1.224c.42.429.807.781.861.781s-.246-.352-.665-.781c-.42-.43-.807-.782-.861-.782-.053,0,.246.352.665.782m-107.177,3.854c.456.041,1.203.041,1.66,0c.456-.042.083-.075-.83-.075s-1.287.033-.83.075m122.598.687l-.772.83.83-.772c.772-.718.92-.888.772-.888-.032,0-.405.373-.83.83m-4.724,1.849c.296.045.736.043.976-.003s-.003-.083-.54-.082c-.537.002-.733.04-.436.085m-79.849,18.463l-.574.635.635-.574c.349-.315.634-.601.634-.635c0-.15-.161-.018-.695.574m-8.98,9.375l-.969,1.025l1.025-.969c.953-.9,1.115-1.081.97-1.081-.031,0-.493.461-1.026,1.025m-33.098,5.518c-.474.483-.819.879-.765.879s.486-.396.96-.879c.475-.484.819-.879.765-.879-.053,0-.486.395-.96.879m10.01,4.138c.188.049.495.049.683,0s.035-.089-.341-.089-.53.04-.342.089m3.906.206c.94.036,2.478.036,3.418,0s.171-.065-1.709-.065-2.649.029-1.709.065m98.535,5.465c.349.043.921.043,1.27,0s.063-.079-.635-.079-.984.036-.635.079m-2.153,4.882c.347.044.962.044,1.368.002.405-.042.121-.078-.631-.078-.752-.001-1.083.033-.737.076m18.218,6.756c0,.034.285.32.634.635l.635.574-.573-.635c-.535-.592-.696-.724-.696-.574m1.803,3.26c0,.376.04.529.089.341s.049-.495,0-.683-.089-.034-.089.342m-61.91,2.832c.002.429.042.582.089.339.046-.243.044-.594-.004-.781-.049-.187-.088.012-.085.442m24.12,18.985c.242.047.638.047.879,0c.242-.046.044-.084-.439-.084-.484,0-.681.038-.44.084m2.93.196c.242.046.637.046.879,0c.242-.047.044-.085-.44-.085-.483,0-.681.038-.439.085m3.03.197c.297.045.736.044.977-.003.24-.046-.003-.083-.54-.081-.537.001-.734.039-.437.084m4.685.2c.725.038,1.911.038,2.637,0c.725-.037.131-.068-1.319-.068s-2.043.031-1.318.068" fill="#cbc9c4" fill-rule="evenodd"/><path d="M200.049,72.015c.295.045.779.045,1.074,0s.054-.081-.537-.081-.833.036-.537.081m3.226.002c.351.043.878.042,1.172-.002.293-.045.006-.081-.638-.079-.645.001-.885.037-.534.081m-15.58,25.932c-.8.806-1.411,1.465-1.357,1.465s.752-.659,1.553-1.465c.8-.805,1.411-1.465,1.357-1.465s-.752.66-1.553,1.465m-14.798,34.082c0,.376.04.53.089.342s.049-.496,0-.684-.089-.034-.089.342m-39.645,5.957c.003.43.043.583.089.34.047-.243.045-.595-.004-.781-.049-.187-.087.012-.085.441m90.967,2.735c.583.59,1.105,1.074,1.158,1.074.054,0-.379-.484-.963-1.074-.583-.591-1.105-1.075-1.158-1.075-.054,0,.379.484.963,1.075m26.953.586c-.475.483-.819.879-.765.879s.486-.396.96-.879c.475-.484.819-.879.765-.879s-.486.395-.96.879m-117.92,1.953c.003.429.043.582.089.339.047-.243.045-.594-.004-.781s-.087.012-.085.442M86.221,155.127l-.772.83.83-.772c.772-.718.92-.888.772-.888-.032,0-.405.373-.83.83M195.02,169.141c.854.859,1.597,1.562,1.651,1.562.053,0-.602-.703-1.456-1.562-.854-.86-1.597-1.563-1.651-1.563s.601.703,1.456,1.563m69.426.146l-1.067,1.123l1.123-1.067c1.043-.992,1.212-1.179,1.067-1.179-.03,0-.535.505-1.123,1.123m-72.258.928c.692.698,1.302,1.269,1.355,1.269.054,0-.468-.571-1.16-1.269s-1.302-1.27-1.356-1.27.468.572,1.161,1.27m31.5,13.718c.513.04,1.304.04,1.757-.001.454-.041.034-.074-.933-.074-.967.001-1.338.034-.824.075M96.191,193.945c1.178,1.182,2.186,2.149,2.24,2.149s-.866-.967-2.044-2.149c-1.178-1.181-2.186-2.148-2.24-2.148-.053,0,.866.967,2.044,2.148m4.883,5.078c.855.86,1.597,1.563,1.651,1.563s-.601-.703-1.455-1.563c-.855-.859-1.598-1.562-1.651-1.562-.054,0,.601.703,1.455,1.562m-7.617-.585c.42.429.807.781.861.781.053,0-.246-.352-.666-.781-.419-.43-.806-.782-.86-.782s.245.352.665.782m3.8,3.955c.479.51.897.927.928.927.147,0-.008-.175-.871-.984l-.927-.871.87.928m7.821.439c.365.376.707.684.76.684.054,0-.2-.308-.565-.684-.364-.376-.706-.684-.76-.684-.053,0,.201.308.565.684m3.32,3.516c.584.59,1.105,1.074,1.159,1.074s-.38-.484-.963-1.074c-.584-.591-1.105-1.075-1.159-1.075-.053,0,.38.484.963,1.075m17.676,20.996c.42.429.807.781.861.781.053,0-.246-.352-.665-.781-.42-.43-.807-.781-.861-.781s.246.351.665.781m-8.443,1.953c0,.483.038.681.085.439.047-.241.047-.637,0-.879-.047-.241-.085-.044-.085.44m-3.328,29.883c0,.376.04.529.089.341.05-.188.05-.495,0-.683-.049-.188-.089-.034-.089.342m141.068,4.687c.529.537,1.006.977,1.06.977.053,0-.336-.44-.865-.977s-1.005-.976-1.059-.976.335.439.864.976m4.688,5.078c.637.645,1.203,1.172,1.257,1.172s-.424-.527-1.062-1.172c-.638-.644-1.204-1.172-1.257-1.172-.054,0,.424.528,1.062,1.172M144.403,270.02c.001.859.035,1.186.076.727.041-.46.041-1.163-.001-1.563s-.076-.024-.075.836m85.347,10.839c0,.699.035.984.079.635.043-.349.043-.92,0-1.269-.044-.35-.079-.064-.079.634M122.161,293.994l-.97,1.026l1.026-.97c.953-.9,1.115-1.081.969-1.081-.031,0-.492.461-1.025,1.025m58.75,12.787c.297.045.736.043.976-.003.241-.046-.002-.083-.539-.082-.537.002-.734.04-.437.085m-20.95,18.121c-.474.484-.819.879-.765.879s.486-.395.96-.879c.475-.483.819-.879.765-.879s-.486.396-.96.879m81.396,10.001c.242.047.638.047.879,0c.242-.046.044-.084-.439-.084-.484,0-.681.038-.44.084m21.001,21.152c0,.483.038.681.085.439.046-.242.046-.637,0-.879-.047-.241-.085-.044-.085.44m-3.479,8.447l-.969,1.025l1.026-.969c.952-.9,1.115-1.081.969-1.081-.031,0-.493.461-1.026,1.025m-27.19,7.703c.188.049.496.049.684,0s.034-.089-.342-.089-.53.04-.342.089" fill="#b4b4b0" fill-rule="evenodd"/><path d="M201.807,72.01c.188.049.495.049.683,0s.034-.09-.342-.09-.529.041-.341.09m21.911,41.125l-.573.635.634-.574c.592-.535.725-.696.574-.696-.034,0-.319.286-.635.635m-90.443,27.49c0,1.128.033,1.589.072,1.025.04-.564.04-1.486,0-2.05-.039-.564-.072-.103-.072,1.025m55.592,33.105c.365.376.707.684.76.684.054,0-.2-.308-.564-.684-.365-.376-.707-.683-.761-.683-.053,0,.201.307.565.683m-61.914,54.456c0,.034.286.319.635.635l.635.574-.574-.635c-.535-.592-.696-.725-.696-.574m102.788,50.72c0,.484.038.681.084.44.047-.242.047-.638,0-.879-.046-.242-.084-.044-.084.439m-57.866,32.715c-.474.483-.819.879-.765.879s.486-.396.96-.879c.475-.483.819-.879.765-.879-.053,0-.486.396-.96.879m90.483,42.871c0,.484.038.681.085.44.046-.242.046-.638,0-.879-.047-.242-.085-.044-.085.439" fill="#bcbcb4" fill-rule="evenodd"/></g></svg>